<svg xmlns="http://www.w3.org/2000/svg" viewBox="0 0 64 64" role="img" aria-label="BorgBackup Manager">
  <defs>
    <linearGradient id="g" x1="8" y1="6" x2="56" y2="58" gradientUnits="userSpaceOnUse">
      <stop stop-color="#2f8f7f"/>
      <stop offset="1" stop-color="#174c46"/>
    </linearGradient>
  </defs>
  <rect x="3" y="3" width="58" height="58" rx="15" fill="#10252a"/>
  <path d="M32 8 52 19v26L32 56 12 45V19Z" fill="url(#g)" stroke="#8bd2c4" stroke-width="2"/>
  <path d="M21 20h14.5c6 0 9.5 3.1 9.5 7.4 0 2.7-1.5 5-4.2 6.2 3.4 1 5.2 3.6 5.2 6.7 0 5-3.9 8.2-10.6 8.2H21Zm8 6v5h6c2 0 3-1 3-2.5S37 26 35 26Zm0 10.8v5.7h6.7c2.3 0 3.5-1 3.5-2.8 0-1.9-1.2-2.9-3.5-2.9Z" fill="#f4fbf9"/>
  <path d="M16 16 32 7l16 9" fill="none" stroke="#d2f3ec" stroke-width="2" stroke-linecap="round" opacity=".85"/>
</svg>
